<?xml version="1.0" standalone="no"?>
<!DOCTYPE svg PUBLIC "-//W3C//DTD SVG 20010904//EN"
 "http://www.w3.org/TR/2001/REC-SVG-20010904/DTD/svg10.dtd">
<svg version="1.0" xmlns="http://www.w3.org/2000/svg"
 width="506.000000pt" height="506.000000pt" viewBox="0 0 506.000000 506.000000"
 preserveAspectRatio="xMidYMid meet">
<metadata>
Created by potrace 1.11, written by Peter Selinger 2001-2013
</metadata>
<g transform="translate(0.000000,506.000000) scale(0.100000,-0.100000)"
fill="#000000" stroke="none">
<path d="M2995 4745 c-106 -37 -119 -44 -205 -104 -90 -62 -86 -60 -147 -120
-107 -107 -238 -337 -259 -455 -3 -17 -9 -49 -14 -72 -5 -22 -12 -78 -16 -124
-6 -74 -5 -84 11 -96 42 -31 193 -6 315 53 62 30 94 56 185 147 137 139 231
275 275 401 66 187 92 387 53 399 -39 12 -112 1 -198 -29z"/>
<path d="M1565 3603 c-120 -15 -180 -36 -330 -116 -64 -35 -137 -92 -224 -178
-41 -41 -129 -161 -158 -215 -14 -27 -32 -56 -39 -65 -8 -8 -14 -21 -14 -28 0
-7 -6 -27 -14 -44 -14 -31 -27 -74 -60 -187 -16 -55 -32 -169 -37 -265 -4 -85
4 -340 11 -340 1 0 3 -13 5 -30 9 -76 17 -121 23 -130 3 -5 7 -26 8 -46 1 -20
13 -68 25 -105 60 -187 72 -221 84 -249 7 -16 16 -41 20 -55 4 -14 43 -97 86
-186 43 -88 79 -166 79 -172 0 -7 6 -12 14 -12 8 0 19 -12 25 -28 15 -38 121
-205 154 -243 15 -17 27 -37 27 -44 0 -8 9 -17 20 -20 11 -3 20 -13 20 -20 0
-8 18 -33 40 -55 22 -22 40 -45 40 -50 0 -17 49 -67 94 -95 25 -16 46 -33 46
-37 0 -4 9 -8 21 -8 11 0 40 -9 64 -20 24 -11 52 -21 62 -23 10 -1 23 -6 29
-9 5 -4 41 -12 78 -19 54 -9 84 -9 142 1 41 7 74 17 74 21 0 5 9 9 20 9 10 0
34 6 52 14 52 22 131 46 151 46 9 0 17 3 17 8 0 4 38 16 85 27 47 10 85 23 85
27 0 11 68 10 75 -2 3 -5 11 -7 18 -4 8 3 54 -3 103 -12 49 -9 103 -19 119
-22 17 -3 44 -16 61 -28 17 -13 37 -24 45 -24 22 0 82 -23 112 -43 14 -9 33
-17 42 -17 9 0 34 -9 56 -19 32 -16 57 -19 137 -16 139 5 218 39 356 155 43
36 56 50 106 110 25 30 59 70 76 90 17 19 41 51 54 70 14 19 30 41 36 48 21
20 104 158 104 170 0 7 5 12 11 12 11 0 152 285 164 331 5 22 0 29 -45 57 -28
18 -54 32 -57 32 -12 0 -199 180 -218 211 -5 9 -23 36 -39 60 -97 145 -143
293 -153 489 -9 189 18 309 109 484 17 33 41 74 53 92 48 71 236 274 253 274
6 0 12 7 16 15 3 8 2 15 -2 15 -4 0 -15 12 -24 28 -31 51 -201 212 -224 212
-4 0 -22 11 -40 25 -18 14 -35 25 -38 25 -3 0 -29 11 -58 24 -164 75 -360 103
-539 77 -73 -11 -274 -66 -334 -92 -212 -91 -363 -98 -520 -24 -171 81 -249
109 -357 129 -79 15 -207 19 -283 9z"/>
</g>
</svg>
